# xmcd
#
# Track frame offsets:
#	150
#	10738
#	19772
#	31031
#	43410
#	55753
#	68637
#	81321
#	92158
#	104423
#	120296
#	133799
#	143556
#
# Disc length: 2059 seconds
#
# Revision: 1
# Processed by: cddbd v1.5.2PL0 Copyright (c) Steve Scherf et al.
# Submitted via: audiograbber 1.83.01
#
DISCID=a308090d
DTITLE=Lucky Tubb and The Modern Day Troubadours - Del Gaucho
DYEAR=2012
DGENRE=Country
TTITLE0=Bachelor Man
TTITLE1=Never Shoud Fell In Love
TTITLE2=I Can't Sleep A Wink
TTITLE3=Guess I'm A Fool
TTITLE4=White Silver Sands
TTITLE5=Officer Guerrero
TTITLE6=Cowtown Boogie
TTITLE7=Stood There
TTITLE8=Lil Ole Wine Drinker Me
TTITLE9=Heard Your Name
TTITLE10=Better Off Alone
TTITLE11=Rhythm Bomb
TTITLE12=That's What I Get
EXTD=
EXTT0=
EXTT1=
EXTT2=
EXTT3=
EXTT4=
EXTT5=
EXTT6=
EXTT7=
EXTT8=
EXTT9=
EXTT10=
EXTT11=
EXTT12=
PLAYORDER=
